<svg class="sc-1hccucs-10 giRiYs sc-15w2rj3-0 dRdZPE" viewBox="0 0 102 15" xmlns="http://www.w3.org/2000/svg" xmlns:xlink="http://www.w3.org/1999/xlink"><title>casa-moyses</title><defs><path id="b" d="M114.608 7.107c1.078 0 1.855.397 2.335 1.203.475.808.716 1.847.716 3.115v4.123h-1.138v-4.123c0-.923-.138-1.689-.413-2.297-.277-.599-.776-.905-1.5-.905-.696 0-1.221.306-1.575.905-.352.608-.532 1.374-.532 2.297v4.123h-1.134l-.007-4.123c.005-.923-.05-1.717-.347-2.32-.355-.583-.876-.877-1.564-.877-.729 0-1.226.304-1.507.907-.279.602-.414 1.367-.414 2.293v4.127h-1.141v-4.127c0-1.269.239-2.307.717-3.112.48-.81 1.263-1.206 2.345-1.206 1.402 0 2.26.594 2.584 1.788.319-1.196 1.183-1.791 2.575-1.791zm-47.434 1.12c-.853 0-1.574.328-2.16.977-.584.653-.875 1.397-.875 2.236 0 .846.29 1.587.883 2.226.592.635 1.309.958 2.152.958.853 0 1.575-.323 2.17-.967.05-.058.103-.118.157-.17h1.357c-.196.334-.436.66-.73.966-.827.863-1.81 1.292-2.954 1.292-1.152 0-2.134-.436-2.95-1.311C63.409 13.56 63 12.559 63 11.433c0-1.146.408-2.151 1.225-3.022.82-.87 1.802-1.3 2.95-1.3 1.159 0 2.148.44 2.97 1.317.31.332.558.678.754 1.047H69.57c-.07-.096-.15-.189-.228-.28-.6-.643-1.32-.967-2.169-.967zm11.843 5.163c0 .207-.1.383-.289.535-.048.04-.128.096-.24.176a2.52 2.52 0 0 1-.455.234 4.065 4.065 0 0 1-.692.2c-.278.058-.6.089-.975.089-.245 0-.5-.012-.77-.037a2.925 2.925 0 0 1-.733-.153 1.373 1.373 0 0 1-.56-.367c-.15-.162-.225-.39-.225-.677 0-.122.03-.25.088-.386.06-.133.137-.267.238-.391.097-.129.215-.244.35-.351.14-.103.285-.193.443-.26.187-.085.407-.144.667-.187a9.78 9.78 0 0 1 .813-.098c.283-.022.563-.04.834-.05.278-.008.525-.015.743-.027.221-.01.403-.022.543-.046.141-.026.214-.058.22-.101v1.897zm-.06-5.705a4.861 4.861 0 0 0-1.143-.424 5.209 5.209 0 0 0-1.202-.15c-.438 0-.856.044-1.266.133-.408.09-.777.23-1.103.415-.333.188-.61.436-.84.735a2.498 2.498 0 0 0-.46 1.08l1.102.234c.108-.316.258-.576.448-.771.189-.193.403-.347.642-.458a3 3 0 0 1 .768-.219c.275-.037.557-.057.84-.057a3.629 3.629 0 0 1 1.483.36c.23.11.418.246.565.4.15.158.226.323.226.512v.55c0 .159-.086.283-.252.366a2.214 2.214 0 0 1-.647.188c-.27.045-.574.077-.913.094-.335.017-.672.038-1.014.065-.339.024-.66.063-.966.109a2.68 2.68 0 0 0-1.419.682 3.097 3.097 0 0 0-.503.567c-.134.2-.24.412-.315.635a1.91 1.91 0 0 0-.116.642c0 .488.106.887.304 1.194.208.308.477.55.814.725.334.174.711.297 1.136.357.425.063.88.16 1.323.16.514.003.906-.044 1.5-.182 0 0 2.12-.538 2.2-2.258V9.248c0-.328-.11-.624-.335-.891a2.918 2.918 0 0 0-.856-.672zm18.104 5.705c0 .207-.096.383-.288.535-.047.04-.127.096-.24.176a2.57 2.57 0 0 1-.451.234 4.119 4.119 0 0 1-.696.2 4.727 4.727 0 0 1-.97.089c-.243 0-.503-.012-.77-.037a2.952 2.952 0 0 1-.737-.153 1.389 1.389 0 0 1-.56-.367c-.15-.162-.225-.39-.225-.677 0-.122.03-.25.09-.386.058-.133.135-.267.236-.391.1-.129.216-.244.355-.351.135-.103.282-.193.437-.26.19-.085.415-.144.67-.187.261-.042.531-.076.811-.098.285-.022.564-.04.838-.05.272-.008.52-.015.739-.027.224-.01.402-.022.544-.046.139-.026.21-.058.217-.101v1.897zm-.055-5.705a4.89 4.89 0 0 0-1.147-.424 5.172 5.172 0 0 0-1.2-.15c-.435 0-.855.044-1.265.133-.41.09-.778.23-1.107.415-.329.188-.61.436-.836.735a2.574 2.574 0 0 0-.463 1.08l1.104.234c.11-.316.257-.576.448-.771.193-.193.403-.347.643-.458.239-.104.496-.179.772-.219.269-.037.551-.057.836-.057.23 0 .482.032.747.097.268.063.512.152.74.262.226.11.414.247.56.401a.712.712 0 0 1 .223.512v.55c0 .159-.082.283-.248.366a2.25 2.25 0 0 1-.652.188 7.99 7.99 0 0 1-.905.094c-.34.017-.678.038-1.014.065-.338.024-.664.063-.966.109a2.688 2.688 0 0 0-1.424.682 3.018 3.018 0 0 0-.497.567c-.138.2-.245.412-.321.635a1.91 1.91 0 0 0-.113.642c0 .488.1.887.304 1.194.206.308.473.55.808.725.335.174.716.297 1.14.357.426.063.88.16 1.325.16.514.003.906-.044 1.5-.182 0 0 2.119-.538 2.197-2.258l.005-4.121c0-.328-.113-.624-.338-.891a2.932 2.932 0 0 0-.856-.672zm29.057 5.972c-.598.644-1.322.967-2.171.967-.847 0-1.564-.323-2.152-.958-.596-.64-.886-1.38-.886-2.226 0-.84.287-1.583.874-2.236.586-.65 1.31-.976 2.164-.976.842 0 1.566.324 2.167.967.6.644.9 1.394.9 2.245 0 .833-.3 1.573-.896 2.217zm-2.171-6.546c1.16 0 2.15.437 2.968 1.315.822.875 1.235 1.88 1.235 3.014 0 1.138-.417 2.143-1.245 3.003-.832.873-1.817 1.302-2.958 1.302-1.151 0-2.138-.436-2.951-1.311-.818-.874-1.226-1.875-1.226-3.001 0-1.146.41-2.151 1.228-3.022.813-.87 1.798-1.3 2.949-1.3zm10.274 6.528l2.548-6.337h1.223l-3.998 9.925c-.456 1.217-1.334 1.804-2.64 1.772v-1.122c.717.007 1.19-.207 1.424-.65l.9-2.23-4.247-7.695h1.296l3.494 6.337zm6.681-4.898c-.277.222-.412.5-.396.835.015.333.126.583.34.75.21.169.447.288.705.364.28.088.71.157 1.289.212.576.053 1.013.104 1.303.141.29.04.57.11.844.214.398.159.775.373 1.125.654.35.284.526.75.526 1.402 0 .646-.283 1.17-.85 1.56a3.968 3.968 0 0 1-1.013.56 4.997 4.997 0 0 1-1.141.264c-.394.04-.79.04-1.183-.004a6.048 6.048 0 0 1-1.146-.248 5.458 5.458 0 0 1-.746-.312 2.84 2.84 0 0 1-.598-.432 2.242 2.242 0 0 1-.439-.578 2.285 2.285 0 0 1-.234-.76l1.1-.231c.012.17.063.326.147.465.08.14.188.255.316.36.129.105.27.195.42.27.15.074.304.137.454.18.25.076.516.128.799.164.284.039.564.044.851.032.28-.016.555-.058.823-.136.268-.073.517-.185.743-.34.33-.197.5-.47.5-.814 0-.348-.13-.602-.386-.767a3.38 3.38 0 0 0-.76-.363 4.682 4.682 0 0 0-.845-.178c-.28-.032-.704-.076-1.262-.142-.562-.061-.977-.146-1.26-.25a2.522 2.522 0 0 1-.711-.412 4.948 4.948 0 0 1-.572-.555c-.176-.202-.268-.529-.285-.979-.012-.453.054-.796.198-1.043.145-.237.333-.45.57-.626a3.746 3.746 0 0 1 1.01-.558 4.99 4.99 0 0 1 1.161-.267 5.425 5.425 0 0 1 1.197.003c.403.048.787.13 1.156.25.265.088.516.192.74.313.232.118.435.264.604.433.176.164.323.36.441.577.111.218.196.47.234.757l-1.1.235a1.518 1.518 0 0 0-.504-.859 1.814 1.814 0 0 0-.396-.249 3.298 3.298 0 0 0-.44-.169 6.052 6.052 0 0 0-.83-.178 4.892 4.892 0 0 0-.89-.046c-.299.01-.586.057-.866.135-.28.077-.523.195-.743.366zm8.337 1.698c.241-.6.637-1.115 1.18-1.557.545-.434 1.146-.654 1.79-.654.654 0 1.247.217 1.78.647.53.433.9.956 1.103 1.564h-5.853zm5.938-2.02c.818.877 1.23 1.924 1.23 3.141h-7.313c.031.794.355 1.507.965 2.128.603.623 1.325.936 2.15.936.608 0 1.2-.184 1.783-.553.584-.37.999-.814 1.247-1.337l1.137.197c-.309.76-.857 1.416-1.646 1.975-.789.56-1.626.84-2.521.84-1.156 0-2.152-.437-2.987-1.306-.833-.874-1.248-1.875-1.248-3.007 0-1.146.415-2.151 1.255-3.022.842-.87 1.834-1.3 2.98-1.3 1.163 0 2.15.433 2.968 1.308zm8.961 3.25c.205.174.396.362.567.564.174.204.263.542.282.996.01.462-.053.813-.197 1.055a2.167 2.167 0 0 1-.563.64c-.299.242-.634.428-1.001.568a4.969 4.969 0 0 1-2.333.263 5.374 5.374 0 0 1-1.141-.253 3.975 3.975 0 0 1-.736-.318 2.846 2.846 0 0 1-.599-.43 2.58 2.58 0 0 1-.43-.59 2.555 2.555 0 0 1-.236-.774l1.093-.232c.036.19.102.358.186.502.092.144.193.265.309.368.118.1.25.186.396.254.147.065.29.123.431.171.254.072.531.134.819.177.294.046.59.06.88.05.297-.013.584-.058.862-.135.275-.078.516-.205.73-.374.276-.227.409-.51.394-.853-.012-.331-.125-.587-.338-.757a2.007 2.007 0 0 0-.697-.369c-.273-.087-.7-.161-1.272-.212a35.297 35.297 0 0 1-1.286-.145 3.674 3.674 0 0 1-.837-.221c-.4-.157-.767-.38-1.112-.664-.348-.285-.522-.764-.522-1.42 0-.66.283-1.187.84-1.586a3.706 3.706 0 0 1 1.004-.561 4.886 4.886 0 0 1 2.3-.266c.388.045.77.13 1.126.251.268.086.517.194.739.316.222.122.422.267.598.438A2.3 2.3 0 0 1 165 9.479l-1.086.237a1.119 1.119 0 0 0-.14-.478 1.636 1.636 0 0 0-.316-.366 2.812 2.812 0 0 0-.871-.456 5.142 5.142 0 0 0-.786-.165 4.991 4.991 0 0 0-.84-.03c-.278.014-.55.062-.816.136a2.55 2.55 0 0 0-.733.341c-.326.208-.492.483-.492.832 0 .352.123.61.378.774.254.169.507.292.753.373.275.09.553.15.835.182.278.029.69.08 1.245.142.555.063.973.15 1.248.253.263.106.501.245.704.415zm-80.49-2.97c-.328.207-.49.482-.49.831 0 .352.125.61.379.774.253.169.502.292.753.373.277.09.553.15.832.182.279.029.695.08 1.252.142.55.063.965.15 1.24.253.266.106.502.245.705.415.205.174.396.362.567.564.175.204.267.542.281.996.016.462-.052.813-.194 1.055a2.231 2.231 0 0 1-.56.64c-.302.242-.634.428-1.002.568a4.954 4.954 0 0 1-2.337.263 5.392 5.392 0 0 1-1.142-.253 3.795 3.795 0 0 1-.73-.318 2.692 2.692 0 0 1-.599-.43 2.286 2.286 0 0 1-.664-1.364l1.087-.232c.043.19.105.358.192.502.085.144.187.265.307.368.12.1.248.186.39.254.145.065.292.123.435.171.253.072.525.134.82.177a4.7 4.7 0 0 0 .881.05c.294-.013.581-.058.853-.135a2.06 2.06 0 0 0 .737-.374c.275-.227.41-.51.393-.853-.013-.331-.128-.587-.335-.757a2.053 2.053 0 0 0-.695-.369c-.28-.087-.705-.161-1.276-.212a34.092 34.092 0 0 1-1.287-.145 3.654 3.654 0 0 1-.834-.221 4.21 4.21 0 0 1-1.115-.664c-.344-.285-.519-.764-.519-1.42 0-.66.281-1.187.837-1.586a3.742 3.742 0 0 1 1.002-.561 4.855 4.855 0 0 1 2.298-.266c.392.045.77.13 1.134.251.268.086.508.194.734.316a2.408 2.408 0 0 1 1.029 1.024c.115.222.191.476.231.771l-1.088.237a1.029 1.029 0 0 0-.142-.478 1.498 1.498 0 0 0-.316-.366 2.377 2.377 0 0 0-.41-.268 3.407 3.407 0 0 0-.454-.188 5.281 5.281 0 0 0-.79-.165 5.01 5.01 0 0 0-.839-.03c-.28.014-.55.062-.814.136-.268.076-.51.19-.736.341zm70.3-2.118l.66-1.581 2 .035-2.112 1.99-.547-.444z"></path><filter id="a" width="101%" height="114.3%" x="-.5%" y="-3.6%" filterUnits="objectBoundingBox"><feOffset dy="1" in="SourceAlpha" result="shadowOffsetOuter1"></feOffset><feColorMatrix in="shadowOffsetOuter1" values="0 0 0 0 0.619607843 0 0 0 0 0.51372549 0 0 0 0 0.282352941 0 0 0 0.33 0"></feColorMatrix></filter></defs><g fill="none" fill-rule="evenodd" transform="translate(-63 -5)"><use fill="#000" filter="url(#a)" href="#b"></use><use fill="#FFF" href="#b"></use></g></svg>
